<svg width="852" height="178" viewBox="0 0 852 178" fill="none" xmlns="http://www.w3.org/2000/svg">
<path d="M0 177V9H38.4L52.32 95.4L66 9H105.12V177.24H73.92V96.12L60.24 177H44.16L30.48 96.84V177H0Z" fill="#CCCCCC"/>
<path d="M108.264 177V9H164.664V38.76H139.224V76.68H164.904V107.88H137.784V145.8H165.144V177H108.264Z" fill="#CCCCCC"/>
<path d="M168.416 93C168.416 80.36 169.536 68.92 171.776 58.68C174.016 48.28 177.136 39.4 181.136 32.04C185.136 24.68 190.016 19 195.776 15C201.536 11 207.856 9 214.736 9C221.616 9 227.856 11 233.456 15C239.216 19 244.096 24.68 248.096 32.04C252.096 39.4 255.216 48.28 257.456 58.68C259.696 68.92 260.816 80.36 260.816 93C260.816 105.64 259.696 117.16 257.456 127.56C255.216 137.8 252.096 146.6 248.096 153.96C244.096 161.32 239.216 167 233.456 171C227.856 175 221.616 177 214.736 177C207.856 177 201.536 175 195.776 171C190.016 167 185.136 161.32 181.136 153.96C177.136 146.6 174.016 137.8 171.776 127.56C169.536 117.16 168.416 105.64 168.416 93ZM198.176 93.48C198.176 101.48 198.576 108.76 199.376 115.32C200.176 121.88 201.296 127.56 202.736 132.36C204.176 137 205.856 140.6 207.776 143.16C209.856 145.72 212.096 147 214.496 147C216.896 147 219.056 145.72 220.976 143.16C223.056 140.6 224.736 137 226.016 132.36C227.456 127.56 228.576 121.88 229.376 115.32C230.176 108.76 230.576 101.48 230.576 93.48C230.576 85.48 230.176 78.2 229.376 71.64C228.576 64.92 227.456 59.24 226.016 54.6C224.736 49.96 223.056 46.36 220.976 43.8C219.056 41.24 216.896 39.96 214.496 39.96C212.096 39.96 209.856 41.24 207.776 43.8C205.856 46.36 204.176 49.96 202.736 54.6C201.296 59.24 200.176 64.92 199.376 71.64C198.576 78.2 198.176 85.48 198.176 93.48Z" fill="#CCCCCC"/>
<path d="M315.454 177H279.694L253.054 9V0L283.774 9L297.934 111L311.374 9H342.574L356.734 111L370.174 9L401.134 0V9L374.254 177H338.494L326.974 104.76L315.454 177Z" fill="#CCCCCC"/>
<path d="M470.011 9C470.171 9 470.251 10.6 470.251 13.8C470.251 16.84 470.251 20.2 470.251 23.88C470.251 28.36 470.171 33.4 470.011 39C465.051 39 460.011 39.48 454.891 40.44C449.931 41.24 445.451 42.6 441.451 44.52C437.611 46.28 434.411 48.44 431.851 51C429.451 53.56 428.251 56.52 428.251 59.88C428.251 62.76 429.291 65.24 431.371 67.32C433.611 69.4 436.251 71.48 439.291 73.56C442.491 75.64 445.931 77.96 449.611 80.52C453.451 82.92 456.891 85.8 459.931 89.16C463.131 92.52 465.771 96.6 467.851 101.4C470.091 106.2 471.211 112.04 471.211 118.92C471.211 129.16 469.291 137.96 465.451 145.32C461.771 152.52 456.651 158.52 450.091 163.32C443.691 167.96 436.171 171.4 427.531 173.64C418.891 175.88 409.771 177 400.171 177V147C403.051 147 406.811 146.52 411.451 145.56C416.091 144.6 420.571 143 424.891 140.76C429.371 138.52 433.211 135.56 436.411 131.88C439.611 128.2 441.131 123.64 440.971 118.2C440.971 115.48 439.931 113.16 437.851 111.24C435.771 109.16 433.131 107.16 429.931 105.24C426.891 103.16 423.611 101 420.091 98.76C416.571 96.36 413.211 93.48 410.011 90.12C406.971 86.6 404.411 82.44 402.331 77.64C400.411 72.84 399.451 66.92 399.451 59.88C399.451 52.52 401.531 45.72 405.691 39.48C410.011 33.24 415.531 27.88 422.251 23.4C428.971 18.92 436.491 15.4 444.811 12.84C453.291 10.28 461.691 9 470.011 9Z" fill="#CCCCCC"/>
<path d="M569.218 9V39.48H538.977V177H509.458V39.48H477.057V9H569.218Z" fill="#CCCCCC"/>
<path d="M574.561 177V9H630.961V38.76H605.521V76.68H631.201V107.88H604.081V145.8H631.441V177H574.561Z" fill="#CCCCCC"/>
<path d="M672.552 9C678.152 9 683.433 9.88 688.393 11.64C693.513 13.4 698.073 16.2 702.073 20.04C706.073 23.72 709.353 28.52 711.913 34.44C714.633 40.36 716.393 47.56 717.193 56.04C718.313 66.44 717.992 75.16 716.232 82.2C714.632 89.08 712.633 94.6 710.233 98.76C707.513 103.88 704.233 107.88 700.393 110.76L720.312 168V177H689.593L674.953 120.6L668.232 121.8V177H637.992L638.232 9H672.552ZM668.232 92.04C671.912 91.72 674.953 90.84 677.353 89.4C679.753 87.8 681.753 85.8 683.353 83.4C684.953 81 686.073 78.28 686.713 75.24C687.353 72.2 687.673 69.08 687.673 65.88C687.673 62.52 687.353 59.24 686.713 56.04C686.073 52.68 685.033 49.72 683.593 47.16C682.153 44.44 680.153 42.28 677.593 40.68C675.193 39.08 672.072 38.28 668.232 38.28V92.04Z" fill="#CCCCCC"/>
<path d="M724.723 9H754.483V177H724.723V9Z" fill="#CCCCCC"/>
<path d="M759.366 93C759.366 80.36 760.486 68.92 762.726 58.68C764.966 48.28 768.086 39.4 772.086 32.04C776.086 24.68 780.966 19 786.726 15C792.486 11 798.806 9 805.686 9C812.566 9 818.806 11 824.406 15C830.166 19 835.046 24.68 839.046 32.04C843.046 39.4 846.166 48.28 848.406 58.68C850.646 68.92 851.766 80.36 851.766 93C851.766 105.64 850.646 117.16 848.406 127.56C846.166 137.8 843.046 146.6 839.046 153.96C835.046 161.32 830.166 167 824.406 171C818.806 175 812.566 177 805.686 177C798.806 177 792.486 175 786.726 171C780.966 167 776.086 161.32 772.086 153.96C768.086 146.6 764.966 137.8 762.726 127.56C760.486 117.16 759.366 105.64 759.366 93ZM789.126 93.48C789.126 101.48 789.526 108.76 790.326 115.32C791.126 121.88 792.246 127.56 793.686 132.36C795.126 137 796.806 140.6 798.726 143.16C800.806 145.72 803.046 147 805.446 147C807.846 147 810.006 145.72 811.926 143.16C814.006 140.6 815.686 137 816.966 132.36C818.406 127.56 819.526 121.88 820.326 115.32C821.126 108.76 821.526 101.48 821.526 93.48C821.526 85.48 821.126 78.2 820.326 71.64C819.526 64.92 818.406 59.24 816.966 54.6C815.686 49.96 814.006 46.36 811.926 43.8C810.006 41.24 807.846 39.96 805.446 39.96C803.046 39.96 800.806 41.24 798.726 43.8C796.806 46.36 795.126 49.96 793.686 54.6C792.246 59.24 791.126 64.92 790.326 71.64C789.526 78.2 789.126 85.48 789.126 93.48Z" fill="#CCCCCC"/>
<path d="M0 168V0H38.4L52.32 86.4L66 0H105.12V168.24H73.92V87.12L60.24 168H44.16L30.48 87.84V168H0Z" fill="white"/>
<path d="M108.264 168V0H164.664V29.76H139.224V67.68H164.904V98.88H137.784V136.8H165.144V168H108.264Z" fill="white"/>
<path d="M168.416 84C168.416 71.36 169.536 59.92 171.776 49.68C174.016 39.28 177.136 30.4 181.136 23.04C185.136 15.68 190.016 10 195.776 6.00001C201.536 2 207.856 0 214.736 0C221.616 0 227.856 2 233.456 6.00001C239.216 10 244.096 15.68 248.096 23.04C252.096 30.4 255.216 39.28 257.456 49.68C259.696 59.92 260.816 71.36 260.816 84C260.816 96.64 259.696 108.16 257.456 118.56C255.216 128.8 252.096 137.6 248.096 144.96C244.096 152.32 239.216 158 233.456 162C227.856 166 221.616 168 214.736 168C207.856 168 201.536 166 195.776 162C190.016 158 185.136 152.32 181.136 144.96C177.136 137.6 174.016 128.8 171.776 118.56C169.536 108.16 168.416 96.64 168.416 84ZM198.176 84.48C198.176 92.48 198.576 99.76 199.376 106.32C200.176 112.88 201.296 118.56 202.736 123.36C204.176 128 205.856 131.6 207.776 134.16C209.856 136.72 212.096 138 214.496 138C216.896 138 219.056 136.72 220.976 134.16C223.056 131.6 224.736 128 226.016 123.36C227.456 118.56 228.576 112.88 229.376 106.32C230.176 99.76 230.576 92.48 230.576 84.48C230.576 76.48 230.176 69.2 229.376 62.64C228.576 55.92 227.456 50.24 226.016 45.6C224.736 40.96 223.056 37.36 220.976 34.8C219.056 32.24 216.896 30.96 214.496 30.96C212.096 30.96 209.856 32.24 207.776 34.8C205.856 37.36 204.176 40.96 202.736 45.6C201.296 50.24 200.176 55.92 199.376 62.64C198.576 69.2 198.176 76.48 198.176 84.48Z" fill="white"/>
<path d="M315.454 168H279.694L253.054 0H283.774L297.934 102L311.374 0H342.574L356.734 102L370.174 0H401.134L374.254 168H338.494L326.974 95.76L315.454 168Z" fill="white"/>
<path d="M470.011 0C470.171 0 470.251 1.6 470.251 4.80001C470.251 7.84001 470.251 11.2 470.251 14.88C470.251 19.36 470.171 24.4 470.011 30C465.051 30 460.011 30.48 454.891 31.44C449.931 32.24 445.451 33.6 441.451 35.52C437.611 37.28 434.411 39.44 431.851 42C429.451 44.56 428.251 47.52 428.251 50.88C428.251 53.76 429.291 56.24 431.371 58.32C433.611 60.4 436.251 62.48 439.291 64.56C442.491 66.64 445.931 68.96 449.611 71.52C453.451 73.92 456.891 76.8 459.931 80.16C463.131 83.52 465.771 87.6 467.851 92.4C470.091 97.2 471.211 103.04 471.211 109.92C471.211 120.16 469.291 128.96 465.451 136.32C461.771 143.52 456.651 149.52 450.091 154.32C443.691 158.96 436.171 162.4 427.531 164.64C418.891 166.88 409.771 168 400.171 168V138C403.051 138 406.811 137.52 411.451 136.56C416.091 135.6 420.571 134 424.891 131.76C429.371 129.52 433.211 126.56 436.411 122.88C439.611 119.2 441.131 114.64 440.971 109.2C440.971 106.48 439.931 104.16 437.851 102.24C435.771 100.16 433.131 98.16 429.931 96.24C426.891 94.16 423.611 92 420.091 89.76C416.571 87.36 413.211 84.48 410.011 81.12C406.971 77.6 404.411 73.44 402.331 68.64C400.411 63.84 399.451 57.92 399.451 50.88C399.451 43.52 401.531 36.72 405.691 30.48C410.011 24.24 415.531 18.88 422.251 14.4C428.971 9.92 436.491 6.4 444.811 3.84001C453.291 1.28 461.691 0 470.011 0Z" fill="white"/>
<path d="M569.218 0V30.48H538.977V168H509.458V30.48H477.057V0H569.218Z" fill="white"/>
<path d="M574.561 168V0H630.961V29.76H605.521V67.68H631.201V98.88H604.081V136.8H631.441V168H574.561Z" fill="white"/>
<path d="M672.552 0C678.152 0 683.433 0.880003 688.393 2.64001C693.513 4.40001 698.073 7.2 702.073 11.04C706.073 14.72 709.353 19.52 711.913 25.44C714.633 31.36 716.393 38.56 717.193 47.04C718.313 57.44 717.992 66.16 716.232 73.2C714.632 80.08 712.633 85.6 710.233 89.76C707.513 94.88 704.233 98.88 700.393 101.76L720.312 168H689.593L674.953 111.6L668.232 112.8V168H637.992L638.232 0H672.552ZM668.232 83.04C671.912 82.72 674.953 81.84 677.353 80.4C679.753 78.8 681.753 76.8 683.353 74.4C684.953 72 686.073 69.28 686.713 66.24C687.353 63.2 687.673 60.08 687.673 56.88C687.673 53.52 687.353 50.24 686.713 47.04C686.073 43.68 685.033 40.72 683.593 38.16C682.153 35.44 680.153 33.28 677.593 31.68C675.193 30.08 672.072 29.28 668.232 29.28V83.04Z" fill="white"/>
<path d="M724.723 0H754.483V168H724.723V0Z" fill="white"/>
<path d="M759.366 84C759.366 71.36 760.486 59.92 762.726 49.68C764.966 39.28 768.086 30.4 772.086 23.04C776.086 15.68 780.966 10 786.726 6.00001C792.486 2 798.806 0 805.686 0C812.566 0 818.806 2 824.406 6.00001C830.166 10 835.046 15.68 839.046 23.04C843.046 30.4 846.166 39.28 848.406 49.68C850.646 59.92 851.766 71.36 851.766 84C851.766 96.64 850.646 108.16 848.406 118.56C846.166 128.8 843.046 137.6 839.046 144.96C835.046 152.32 830.166 158 824.406 162C818.806 166 812.566 168 805.686 168C798.806 168 792.486 166 786.726 162C780.966 158 776.086 152.32 772.086 144.96C768.086 137.6 764.966 128.8 762.726 118.56C760.486 108.16 759.366 96.64 759.366 84ZM789.126 84.48C789.126 92.48 789.526 99.76 790.326 106.32C791.126 112.88 792.246 118.56 793.686 123.36C795.126 128 796.806 131.6 798.726 134.16C800.806 136.72 803.046 138 805.446 138C807.846 138 810.006 136.72 811.926 134.16C814.006 131.6 815.686 128 816.966 123.36C818.406 118.56 819.526 112.88 820.326 106.32C821.126 99.76 821.526 92.48 821.526 84.48C821.526 76.48 821.126 69.2 820.326 62.64C819.526 55.92 818.406 50.24 816.966 45.6C815.686 40.96 814.006 37.36 811.926 34.8C810.006 32.24 807.846 30.96 805.446 30.96C803.046 30.96 800.806 32.24 798.726 34.8C796.806 37.36 795.126 40.96 793.686 45.6C792.246 50.24 791.126 55.92 790.326 62.64C789.526 69.2 789.126 76.48 789.126 84.48Z" fill="white"/>
</svg>
