<svg width="97" height="20" viewBox="0 0 97 20" fill="none" xmlns="http://www.w3.org/2000/svg">
<path d="M0.324 19.5V0.599999H4.644L6.21 10.32L7.749 0.599999H12.15V19.527H8.64V10.401L7.101 19.5H5.292L3.753 10.482V19.5H0.324ZM12.5037 19.5V0.599999H18.8487V3.948H15.9867V8.214H18.8757V11.724H15.8247V15.99H18.9027V19.5H12.5037ZM19.7208 10.05C19.7208 8.628 19.8468 7.341 20.0988 6.189C20.3508 5.019 20.7018 4.02 21.1518 3.192C21.6018 2.364 22.1508 1.725 22.7988 1.275C23.4468 0.824999 24.1578 0.599999 24.9318 0.599999C25.7058 0.599999 26.4078 0.824999 27.0378 1.275C27.6858 1.725 28.2348 2.364 28.6848 3.192C29.1348 4.02 29.4858 5.019 29.7378 6.189C29.9898 7.341 30.1158 8.628 30.1158 10.05C30.1158 11.472 29.9898 12.768 29.7378 13.938C29.4858 15.09 29.1348 16.08 28.6848 16.908C28.2348 17.736 27.6858 18.375 27.0378 18.825C26.4078 19.275 25.7058 19.5 24.9318 19.5C24.1578 19.5 23.4468 19.275 22.7988 18.825C22.1508 18.375 21.6018 17.736 21.1518 16.908C20.7018 16.08 20.3508 15.09 20.0988 13.938C19.8468 12.768 19.7208 11.472 19.7208 10.05ZM23.0688 10.104C23.0688 11.004 23.1138 11.823 23.2038 12.561C23.2938 13.299 23.4198 13.938 23.5818 14.478C23.7438 15 23.9328 15.405 24.1488 15.693C24.3828 15.981 24.6348 16.125 24.9048 16.125C25.1748 16.125 25.4178 15.981 25.6338 15.693C25.8678 15.405 26.0568 15 26.2008 14.478C26.3628 13.938 26.4888 13.299 26.5788 12.561C26.6688 11.823 26.7138 11.004 26.7138 10.104C26.7138 9.204 26.6688 8.385 26.5788 7.647C26.4888 6.891 26.3628 6.252 26.2008 5.73C26.0568 5.208 25.8678 4.803 25.6338 4.515C25.4178 4.227 25.1748 4.083 24.9048 4.083C24.6348 4.083 24.3828 4.227 24.1488 4.515C23.9328 4.803 23.7438 5.208 23.5818 5.73C23.4198 6.252 23.2938 6.891 23.2038 7.647C23.1138 8.385 23.0688 9.204 23.0688 10.104ZM37.8375 19.5H33.8145L30.8175 0.599999H34.2735L35.8665 12.075L37.3785 0.599999H40.8885L42.4815 12.075L43.9935 0.599999H47.4765L44.4525 19.5H40.4295L39.1335 11.373L37.8375 19.5ZM54.3253 0.599999C54.3433 0.599999 54.3523 0.779999 54.3523 1.14C54.3523 1.482 54.3523 1.86 54.3523 2.274C54.3523 2.778 54.3433 3.345 54.3253 3.975C53.7673 3.975 53.2003 4.029 52.6243 4.137C52.0663 4.227 51.5623 4.38 51.1123 4.596C50.6803 4.794 50.3203 5.037 50.0323 5.325C49.7623 5.613 49.6273 5.946 49.6273 6.324C49.6273 6.648 49.7443 6.927 49.9783 7.161C50.2303 7.395 50.5273 7.629 50.8693 7.863C51.2293 8.097 51.6163 8.358 52.0303 8.646C52.4623 8.916 52.8493 9.24 53.1913 9.618C53.5513 9.996 53.8483 10.455 54.0823 10.995C54.3343 11.535 54.4603 12.192 54.4603 12.966C54.4603 14.118 54.2443 15.108 53.8123 15.936C53.3983 16.746 52.8223 17.421 52.0843 17.961C51.3643 18.483 50.5183 18.87 49.5463 19.122C48.5743 19.374 47.5483 19.5 46.4683 19.5V16.125C46.7923 16.125 47.2153 16.071 47.7373 15.963C48.2593 15.855 48.7633 15.675 49.2493 15.423C49.7533 15.171 50.1853 14.838 50.5453 14.424C50.9053 14.01 51.0763 13.497 51.0583 12.885C51.0583 12.579 50.9413 12.318 50.7073 12.102C50.4733 11.868 50.1763 11.643 49.8163 11.427C49.4743 11.193 49.1053 10.95 48.7093 10.698C48.3133 10.428 47.9353 10.104 47.5753 9.726C47.2333 9.33 46.9453 8.862 46.7113 8.322C46.4953 7.782 46.3873 7.116 46.3873 6.324C46.3873 5.496 46.6213 4.731 47.0893 4.029C47.5753 3.327 48.1963 2.724 48.9523 2.22C49.7083 1.716 50.5543 1.32 51.4903 1.032C52.4443 0.743999 53.3893 0.599999 54.3253 0.599999ZM65.486 0.599999V4.029H62.084V19.5H58.763V4.029H55.118V0.599999H65.486ZM66.7621 19.5V0.599999H73.1071V3.948H70.2451V8.214H73.1341V11.724H70.0831V15.99H73.1611V19.5H66.7621ZM77.7862 0.599999C78.4162 0.599999 79.0102 0.698999 79.5682 0.897C80.1442 1.095 80.6572 1.41 81.1072 1.842C81.5572 2.256 81.9262 2.796 82.2142 3.462C82.5202 4.128 82.7182 4.938 82.8082 5.892C82.9342 7.062 82.8982 8.043 82.7002 8.835C82.5202 9.609 82.2952 10.23 82.0252 10.698C81.7192 11.274 81.3502 11.724 80.9182 12.048L83.1592 19.5H79.7032L78.0562 13.155L77.3002 13.29V19.5H73.8982L73.9252 0.599999H77.7862ZM77.3002 9.942C77.7142 9.906 78.0562 9.807 78.3262 9.645C78.5962 9.465 78.8212 9.24 79.0012 8.97C79.1812 8.7 79.3072 8.394 79.3792 8.052C79.4512 7.71 79.4872 7.359 79.4872 6.999C79.4872 6.621 79.4512 6.252 79.3792 5.892C79.3072 5.514 79.1902 5.181 79.0282 4.893C78.8662 4.587 78.6412 4.344 78.3532 4.164C78.0832 3.984 77.7322 3.894 77.3002 3.894V9.942ZM81.8553 0.599999H85.2033V19.5H81.8553V0.599999ZM85.7526 10.05C85.7526 8.628 85.8786 7.341 86.1306 6.189C86.3826 5.019 86.7336 4.02 87.1836 3.192C87.6336 2.364 88.1826 1.725 88.8306 1.275C89.4786 0.824999 90.1896 0.599999 90.9636 0.599999C91.7376 0.599999 92.4396 0.824999 93.0696 1.275C93.7176 1.725 94.2666 2.364 94.7166 3.192C95.1666 4.02 95.5176 5.019 95.7696 6.189C96.0216 7.341 96.1476 8.628 96.1476 10.05C96.1476 11.472 96.0216 12.768 95.7696 13.938C95.5176 15.09 95.1666 16.08 94.7166 16.908C94.2666 17.736 93.7176 18.375 93.0696 18.825C92.4396 19.275 91.7376 19.5 90.9636 19.5C90.1896 19.5 89.4786 19.275 88.8306 18.825C88.1826 18.375 87.6336 17.736 87.1836 16.908C86.7336 16.08 86.3826 15.09 86.1306 13.938C85.8786 12.768 85.7526 11.472 85.7526 10.05ZM89.1006 10.104C89.1006 11.004 89.1456 11.823 89.2356 12.561C89.3256 13.299 89.4516 13.938 89.6136 14.478C89.7756 15 89.9646 15.405 90.1806 15.693C90.4146 15.981 90.6666 16.125 90.9366 16.125C91.2066 16.125 91.4496 15.981 91.6656 15.693C91.8996 15.405 92.0886 15 92.2326 14.478C92.3946 13.938 92.5206 13.299 92.6106 12.561C92.7006 11.823 92.7456 11.004 92.7456 10.104C92.7456 9.204 92.7006 8.385 92.6106 7.647C92.5206 6.891 92.3946 6.252 92.2326 5.73C92.0886 5.208 91.8996 4.803 91.6656 4.515C91.4496 4.227 91.2066 4.083 90.9366 4.083C90.6666 4.083 90.4146 4.227 90.1806 4.515C89.9646 4.803 89.7756 5.208 89.6136 5.73C89.4516 6.252 89.3256 6.891 89.2356 7.647C89.1456 8.385 89.1006 9.204 89.1006 10.104Z" fill="black"/>
</svg>
